<svg width="167" height="28" viewBox="0 0 167 28" fill="none" xmlns="http://www.w3.org/2000/svg">
<path d="M79.5 0H0V28H79.5V0Z" fill="#555555"/>
<path d="M166.5 0H79.5V28H166.5V0Z" fill="#F03030"/>
<path d="M96.7395 11.817L94.1114 11.452L92.9364 9.17607C92.9043 9.11375 92.8516 9.06331 92.7864 9.03264C92.6228 8.95549 92.4241 9.01979 92.3422 9.17607L91.1674 11.452L88.5392 11.817C88.4668 11.8269 88.4005 11.8596 88.3498 11.909C88.2885 11.9692 88.2547 12.0503 88.2558 12.1343C88.257 12.2183 88.2931 12.2984 88.356 12.3571L90.2576 14.1286L89.8083 16.6301C89.7977 16.6883 89.8044 16.7481 89.8278 16.8029C89.851 16.8576 89.8898 16.905 89.9399 16.9397C89.9898 16.9744 90.049 16.995 90.1106 16.9992C90.1723 17.0034 90.2339 16.991 90.2886 16.9634L92.6393 15.7824L94.9901 16.9634C95.0544 16.9961 95.1289 17.007 95.2003 16.9951C95.3804 16.9654 95.5015 16.8022 95.4705 16.6301L95.0212 14.1286L96.9227 12.3571C96.9745 12.3086 97.0086 12.2453 97.019 12.1761C97.0469 12.003 96.9206 11.8428 96.7395 11.817Z" fill="#FFD500"/>
<path d="M16.5762 15.2637C16.5762 15.625 16.5078 15.944 16.3711 16.2207C16.2344 16.4974 16.0505 16.7253 15.8193 16.9043C15.5459 17.1191 15.2448 17.2721 14.916 17.3633C14.5905 17.4544 14.1755 17.5 13.6709 17.5H11.0928V10.2295H13.2461C13.7767 10.2295 14.1738 10.249 14.4375 10.2881C14.7012 10.3271 14.9535 10.4085 15.1943 10.5322C15.4613 10.6722 15.6549 10.8529 15.7754 11.0742C15.8958 11.2923 15.9561 11.5544 15.9561 11.8604C15.9561 12.2054 15.8682 12.5 15.6924 12.7441C15.5166 12.985 15.2822 13.1787 14.9893 13.3252V13.3643C15.4808 13.4652 15.8682 13.6816 16.1514 14.0137C16.4346 14.3424 16.5762 14.7591 16.5762 15.2637ZM14.9502 11.9873C14.9502 11.8115 14.9209 11.6634 14.8623 11.543C14.8037 11.4225 14.7093 11.3249 14.5791 11.25C14.4261 11.1621 14.2406 11.1084 14.0225 11.0889C13.8044 11.0661 13.5342 11.0547 13.2119 11.0547H12.0596V13.1543H13.3096C13.6123 13.1543 13.8532 13.1396 14.0322 13.1104C14.2113 13.0778 14.3773 13.0127 14.5303 12.915C14.6833 12.8174 14.7907 12.6921 14.8525 12.5391C14.9176 12.3828 14.9502 12.1989 14.9502 11.9873ZM15.5703 15.3027C15.5703 15.0098 15.5264 14.777 15.4385 14.6045C15.3506 14.432 15.1911 14.2855 14.96 14.165C14.8037 14.0837 14.6133 14.0316 14.3887 14.0088C14.1673 13.9827 13.8971 13.9697 13.5781 13.9697H12.0596V16.6748H13.3389C13.762 16.6748 14.1087 16.6536 14.3789 16.6113C14.6491 16.5658 14.8704 16.4844 15.043 16.3672C15.2253 16.2402 15.3587 16.0954 15.4434 15.9326C15.528 15.7699 15.5703 15.5599 15.5703 15.3027Z" fill="white"/>
<path d="M23.9639 17.5H22.709L20.2773 14.6094H18.915V17.5H17.9482V10.2295H19.9844C20.4238 10.2295 20.79 10.2588 21.083 10.3174C21.376 10.3727 21.6396 10.4736 21.874 10.6201C22.1377 10.7861 22.3428 10.9961 22.4893 11.25C22.639 11.5007 22.7139 11.8197 22.7139 12.207C22.7139 12.7311 22.582 13.1706 22.3184 13.5254C22.0547 13.877 21.6917 14.1423 21.2295 14.3213L23.9639 17.5ZM21.7031 12.2754C21.7031 12.0671 21.6657 11.8831 21.5908 11.7236C21.5192 11.5609 21.3988 11.4242 21.2295 11.3135C21.0895 11.2191 20.9235 11.154 20.7314 11.1182C20.5394 11.0791 20.3132 11.0596 20.0527 11.0596H18.915V13.8037H19.8916C20.1976 13.8037 20.4645 13.7777 20.6924 13.7256C20.9202 13.6702 21.1139 13.5693 21.2734 13.4229C21.4199 13.2861 21.5273 13.1299 21.5957 12.9541C21.6673 12.7751 21.7031 12.5488 21.7031 12.2754Z" fill="white"/>
<path d="M29.6914 17.5H24.9014V10.2295H29.6914V11.0889H25.8682V13.0811H29.6914V13.9404H25.8682V16.6406H29.6914V17.5Z" fill="white"/>
<path d="M39.6914 10.2295L37.8018 17.5H36.7129L35.1846 11.4648L33.6904 17.5H32.626L30.7021 10.2295H31.6934L33.2217 16.2744L34.7256 10.2295H35.707L37.2256 16.333L38.7441 10.2295H39.6914Z" fill="white"/>
<path d="M45.9121 17.5H41.1221V10.2295H45.9121V11.0889H42.0889V13.0811H45.9121V13.9404H42.0889V16.6406H45.9121V17.5Z" fill="white"/>
<path d="M53.5928 13.8721C53.5928 14.5329 53.4479 15.1318 53.1582 15.6689C52.8717 16.2061 52.4893 16.6227 52.0107 16.9189C51.6787 17.124 51.3076 17.2721 50.8975 17.3633C50.4906 17.4544 49.9535 17.5 49.2861 17.5H47.4502V10.2295H49.2666C49.9762 10.2295 50.5394 10.2816 50.9561 10.3857C51.376 10.4867 51.7308 10.6266 52.0205 10.8057C52.5153 11.1149 52.901 11.5267 53.1777 12.041C53.4544 12.5553 53.5928 13.1657 53.5928 13.8721ZM52.582 13.8574C52.582 13.2878 52.4827 12.8076 52.2842 12.417C52.0856 12.0264 51.7894 11.7188 51.3955 11.4941C51.109 11.3314 50.8047 11.2191 50.4824 11.1572C50.1602 11.0921 49.7744 11.0596 49.3252 11.0596H48.417V16.6699H49.3252C49.7907 16.6699 50.196 16.6357 50.541 16.5674C50.8893 16.499 51.2083 16.3721 51.498 16.1865C51.8594 15.9554 52.1296 15.651 52.3086 15.2734C52.4909 14.8958 52.582 14.4238 52.582 13.8574Z" fill="white"/>
<path d="M61.2344 17.5H58.3633V16.7578H59.3154V10.9717H58.3633V10.2295H61.2344V10.9717H60.2822V16.7578H61.2344V17.5Z" fill="white"/>
<path d="M68.4268 17.5H67.2305L63.7832 10.9961V17.5H62.8799V10.2295H64.3789L67.5234 16.167V10.2295H68.4268V17.5Z" fill="white"/>
<path d="M111.789 10.2295L109.138 17.5H107.038L104.387 10.2295H106.354L108.112 15.3369L109.87 10.2295H111.789Z" fill="white"/>
<path d="M116.765 17.5H112.507V16.2109H113.698V11.5186H112.507V10.2295H116.765V11.5186H115.573V16.2109H116.765V17.5Z" fill="white"/>
<path d="M123.552 17.5H118.293V10.2295H123.552V11.6357H120.158V12.8906H123.308V14.2969H120.158V16.0938H123.552V17.5Z" fill="white"/>
<path d="M130.817 11.6357H128.547V17.5H126.672V11.6357H124.401V10.2295H130.817V11.6357Z" fill="white"/>
<path d="M138.557 17.5H136.75L133.664 12.5098V17.5H131.945V10.2295H134.187L136.838 14.3945V10.2295H138.557V17.5Z" fill="white"/>
<path d="M147.131 17.5H145.192L144.689 16.0303H141.994L141.491 17.5H139.602L142.287 10.2295H144.445L147.131 17.5ZM144.235 14.6973L143.342 12.0898L142.448 14.6973H144.235Z" fill="white"/>
<path d="M155.798 17.5H153.933V12.6318L152.585 15.791H151.291L149.943 12.6318V17.5H148.176V10.2295H150.354L151.989 13.877L153.62 10.2295H155.798V17.5Z" fill="white"/>
</svg>
