<svg width="141" height="28" viewBox="0 0 141 28" fill="none" xmlns="http://www.w3.org/2000/svg">
<path d="M30.5 0H0V28H30.5V0Z" fill="#555555"/>
<path d="M140.5 0H30.5V28H140.5V0Z" fill="#F03030"/>
<path d="M48.7395 11.817L46.1114 11.452L44.9364 9.17607C44.9043 9.11375 44.8516 9.06331 44.7864 9.03264C44.6228 8.95549 44.4241 9.01979 44.3422 9.17607L43.1674 11.452L40.5392 11.817C40.4668 11.8269 40.4005 11.8596 40.3498 11.909C40.2885 11.9692 40.2547 12.0503 40.2558 12.1343C40.257 12.2183 40.2931 12.2984 40.356 12.3571L42.2576 14.1286L41.8083 16.6301C41.7977 16.6883 41.8044 16.7481 41.8278 16.8029C41.851 16.8576 41.8898 16.905 41.9399 16.9397C41.9898 16.9744 42.049 16.995 42.1106 16.9992C42.1723 17.0034 42.2339 16.991 42.2886 16.9634L44.6393 15.7824L46.9901 16.9634C47.0544 16.9961 47.1289 17.007 47.2003 16.9951C47.3804 16.9654 47.5015 16.8022 47.4705 16.6301L47.0212 14.1286L48.9227 12.3571C48.9745 12.3086 49.0086 12.2453 49.019 12.1761C49.0469 12.003 48.9206 11.8428 48.7395 11.817Z" fill="#FFD500"/>
<path d="M13.9561 15.2637C13.9561 15.625 13.8877 15.944 13.751 16.2207C13.6143 16.4974 13.4303 16.7253 13.1992 16.9043C12.9258 17.1191 12.6247 17.2721 12.2959 17.3633C11.9704 17.4544 11.5553 17.5 11.0508 17.5H8.47266V10.2295H10.626C11.1566 10.2295 11.5537 10.249 11.8174 10.2881C12.0811 10.3271 12.3333 10.4085 12.5742 10.5322C12.8411 10.6722 13.0348 10.8529 13.1553 11.0742C13.2757 11.2923 13.3359 11.5544 13.3359 11.8604C13.3359 12.2054 13.248 12.5 13.0723 12.7441C12.8965 12.985 12.6621 13.1787 12.3691 13.3252V13.3643C12.8607 13.4652 13.248 13.6816 13.5312 14.0137C13.8145 14.3424 13.9561 14.7591 13.9561 15.2637ZM12.3301 11.9873C12.3301 11.8115 12.3008 11.6634 12.2422 11.543C12.1836 11.4225 12.0892 11.3249 11.959 11.25C11.806 11.1621 11.6204 11.1084 11.4023 11.0889C11.1842 11.0661 10.9141 11.0547 10.5918 11.0547H9.43945V13.1543H10.6895C10.9922 13.1543 11.2331 13.1396 11.4121 13.1104C11.5911 13.0778 11.7572 13.0127 11.9102 12.915C12.0632 12.8174 12.1706 12.6921 12.2324 12.5391C12.2975 12.3828 12.3301 12.1989 12.3301 11.9873ZM12.9502 15.3027C12.9502 15.0098 12.9062 14.777 12.8184 14.6045C12.7305 14.432 12.571 14.2855 12.3398 14.165C12.1836 14.0837 11.9932 14.0316 11.7686 14.0088C11.5472 13.9827 11.277 13.9697 10.958 13.9697H9.43945V16.6748H10.7188C11.1419 16.6748 11.4886 16.6536 11.7588 16.6113C12.029 16.5658 12.2503 16.4844 12.4229 16.3672C12.6051 16.2402 12.7386 16.0954 12.8232 15.9326C12.9079 15.7699 12.9502 15.5599 12.9502 15.3027Z" fill="white"/>
<path d="M20.4746 10.2295L17.916 14.3115V17.5H16.9492V14.4141L14.3809 10.2295H15.4502L17.4375 13.4814L19.4443 10.2295H20.4746Z" fill="white"/>
<path d="M62.8984 10.2295L60.2471 17.5H58.1475L55.4961 10.2295H57.4639L59.2217 15.3369L60.9795 10.2295H62.8984Z" fill="white"/>
<path d="M67.874 17.5H63.6162V16.2109H64.8076V11.5186H63.6162V10.2295H67.874V11.5186H66.6826V16.2109H67.874V17.5Z" fill="white"/>
<path d="M74.6611 17.5H69.4023V10.2295H74.6611V11.6357H71.2676V12.8906H74.417V14.2969H71.2676V16.0938H74.6611V17.5Z" fill="white"/>
<path d="M81.9268 11.6357H79.6562V17.5H77.7812V11.6357H75.5107V10.2295H81.9268V11.6357Z" fill="white"/>
<path d="M89.666 17.5H87.8594L84.7734 12.5098V17.5H83.0547V10.2295H85.2959L87.9473 14.3945V10.2295H89.666V17.5Z" fill="white"/>
<path d="M98.2402 17.5H96.3018L95.7988 16.0303H93.1035L92.6006 17.5H90.7109L93.3965 10.2295H95.5547L98.2402 17.5ZM95.3447 14.6973L94.4512 12.0898L93.5576 14.6973H95.3447Z" fill="white"/>
<path d="M106.907 17.5H105.042V12.6318L103.694 15.791H102.4L101.053 12.6318V17.5H99.2852V10.2295H101.463L103.099 13.877L104.729 10.2295H106.907V17.5Z" fill="white"/>
<path d="M114.026 17.5H108.768V10.2295H114.026V11.6357H110.633V12.8906H113.782V14.2969H110.633V16.0938H114.026V17.5Z" fill="white"/>
<path d="M121.424 15.2148C121.424 15.931 121.119 16.5137 120.511 16.9629C119.905 17.4089 119.082 17.6318 118.04 17.6318C117.438 17.6318 116.912 17.5798 116.463 17.4756C116.017 17.3682 115.599 17.2331 115.208 17.0703V15.3271H115.413C115.8 15.6364 116.233 15.874 116.712 16.04C117.194 16.2061 117.656 16.2891 118.099 16.2891C118.213 16.2891 118.362 16.2793 118.548 16.2598C118.733 16.2402 118.885 16.2077 119.002 16.1621C119.145 16.1035 119.262 16.0303 119.354 15.9424C119.448 15.8545 119.495 15.7243 119.495 15.5518C119.495 15.3923 119.427 15.2555 119.29 15.1416C119.157 15.0244 118.96 14.9349 118.699 14.873C118.426 14.8079 118.136 14.7477 117.83 14.6924C117.527 14.6338 117.243 14.5605 116.976 14.4727C116.364 14.2741 115.923 14.0055 115.652 13.667C115.385 13.3252 115.252 12.902 115.252 12.3975C115.252 11.7204 115.555 11.1686 116.16 10.7422C116.769 10.3125 117.55 10.0977 118.504 10.0977C118.982 10.0977 119.454 10.1449 119.92 10.2393C120.389 10.3304 120.794 10.446 121.136 10.5859V12.2607H120.936C120.643 12.0264 120.283 11.8311 119.856 11.6748C119.433 11.5153 119 11.4355 118.558 11.4355C118.401 11.4355 118.245 11.4469 118.089 11.4697C117.936 11.4893 117.788 11.5283 117.645 11.5869C117.518 11.6357 117.409 11.7106 117.317 11.8115C117.226 11.9092 117.181 12.0215 117.181 12.1484C117.181 12.3405 117.254 12.4886 117.4 12.5928C117.547 12.6937 117.824 12.7865 118.23 12.8711C118.497 12.9264 118.753 12.9801 118.997 13.0322C119.244 13.0843 119.51 13.1559 119.793 13.2471C120.35 13.4294 120.76 13.6784 121.023 13.9941C121.29 14.3066 121.424 14.7135 121.424 15.2148Z" fill="white"/>
<path d="M127.972 17.5H122.713V10.2295H127.972V11.6357H124.578V12.8906H127.728V14.2969H124.578V16.0938H127.972V17.5Z" fill="white"/>
</svg>
