<svg width="172" height="28" viewBox="0 0 172 28" fill="none" xmlns="http://www.w3.org/2000/svg">
<path d="M50 0H0V28H50V0Z" fill="#555555"/>
<path d="M172 0H50V28H172V0Z" fill="#F8F8F8"/>
<path d="M159.714 10.6394C159.575 10.3186 159.376 10.0279 159.126 9.78355C158.876 9.53846 158.581 9.3437 158.258 9.20985C157.922 9.0705 157.562 8.99917 157.199 9.00001C156.689 9.00001 156.192 9.13956 155.76 9.40315C155.657 9.4662 155.559 9.53546 155.466 9.61092C155.373 9.53546 155.274 9.4662 155.171 9.40315C154.739 9.13956 154.242 9.00001 153.732 9.00001C153.365 9.00001 153.009 9.0703 152.674 9.20985C152.349 9.34423 152.056 9.53753 151.805 9.78355C151.555 10.0276 151.355 10.3184 151.217 10.6394C151.073 10.9733 151 11.3279 151 11.6928C151 12.037 151.07 12.3957 151.21 12.7606C151.327 13.0655 151.494 13.3818 151.708 13.7012C152.047 14.2067 152.513 14.7339 153.092 15.2683C154.051 16.1542 155.001 16.7661 155.042 16.7909L155.287 16.9481C155.395 17.0173 155.535 17.0173 155.643 16.9481L155.888 16.7909C155.929 16.7651 156.878 16.1542 157.838 15.2683C158.417 14.7339 158.883 14.2067 159.222 13.7012C159.436 13.3818 159.604 13.0655 159.72 12.7606C159.86 12.3957 159.93 12.037 159.93 11.6928C159.931 11.3279 159.858 10.9733 159.714 10.6394Z" fill="#F03030"/>
<path d="M15.1182 11.0889H11.4414V13.1396H14.6006V13.999H11.4414V17.5H10.4746V10.2295H15.1182V11.0889Z" fill="white"/>
<path d="M22.2422 17.5H20.9873L18.5557 14.6094H17.1934V17.5H16.2266V10.2295H18.2627C18.7021 10.2295 19.0684 10.2588 19.3613 10.3174C19.6543 10.3727 19.918 10.4736 20.1523 10.6201C20.416 10.7861 20.6211 10.9961 20.7676 11.25C20.9173 11.5007 20.9922 11.8197 20.9922 12.207C20.9922 12.7311 20.8604 13.1706 20.5967 13.5254C20.333 13.877 19.9701 14.1423 19.5078 14.3213L22.2422 17.5ZM19.9814 12.2754C19.9814 12.0671 19.944 11.8831 19.8691 11.7236C19.7975 11.5609 19.6771 11.4242 19.5078 11.3135C19.3678 11.2191 19.2018 11.154 19.0098 11.1182C18.8177 11.0791 18.5915 11.0596 18.3311 11.0596H17.1934V13.8037H18.1699C18.4759 13.8037 18.7428 13.7777 18.9707 13.7256C19.1986 13.6702 19.3923 13.5693 19.5518 13.4229C19.6982 13.2861 19.8057 13.1299 19.874 12.9541C19.9456 12.7751 19.9814 12.5488 19.9814 12.2754Z" fill="white"/>
<path d="M28.5996 11.0645C28.8958 11.39 29.1221 11.7887 29.2783 12.2607C29.4378 12.7327 29.5176 13.2682 29.5176 13.8672C29.5176 14.4661 29.4362 15.0033 29.2734 15.4785C29.1139 15.9505 28.8893 16.3444 28.5996 16.6602C28.3001 16.9889 27.9453 17.2363 27.5352 17.4023C27.1283 17.5684 26.6628 17.6514 26.1387 17.6514C25.6276 17.6514 25.1621 17.5667 24.7422 17.3975C24.3255 17.2282 23.9707 16.9824 23.6777 16.6602C23.3848 16.3379 23.1585 15.9424 22.999 15.4736C22.8428 15.0049 22.7646 14.4694 22.7646 13.8672C22.7646 13.2747 22.8428 12.7441 22.999 12.2754C23.1553 11.8034 23.3831 11.3997 23.6826 11.0645C23.9691 10.7454 24.3239 10.5013 24.7471 10.332C25.1735 10.1628 25.6374 10.0781 26.1387 10.0781C26.6595 10.0781 27.1266 10.1644 27.54 10.3369C27.9567 10.5062 28.3099 10.7487 28.5996 11.0645ZM28.5117 13.8672C28.5117 12.9232 28.3001 12.1956 27.877 11.6846C27.4538 11.1702 26.876 10.9131 26.1436 10.9131C25.4046 10.9131 24.8236 11.1702 24.4004 11.6846C23.9805 12.1956 23.7705 12.9232 23.7705 13.8672C23.7705 14.821 23.9854 15.5518 24.415 16.0596C24.8447 16.5641 25.4209 16.8164 26.1436 16.8164C26.8662 16.8164 27.4408 16.5641 27.8672 16.0596C28.2969 15.5518 28.5117 14.821 28.5117 13.8672Z" fill="white"/>
<path d="M37.5254 17.5H36.5586V11.2354L34.5371 15.498H33.9609L31.9541 11.2354V17.5H31.0508V10.2295H32.3691L34.3076 14.2773L36.1826 10.2295H37.5254V17.5Z" fill="white"/>
<path d="M65.6084 10.2295L62.957 17.5H60.8574L58.2061 10.2295H60.1738L61.9316 15.3369L63.6895 10.2295H65.6084Z" fill="#010101"/>
<path d="M70.584 17.5H66.3262V16.2109H67.5176V11.5186H66.3262V10.2295H70.584V11.5186H69.3926V16.2109H70.584V17.5Z" fill="#010101"/>
<path d="M77.3711 17.5H72.1123V10.2295H77.3711V11.6357H73.9775V12.8906H77.127V14.2969H73.9775V16.0938H77.3711V17.5Z" fill="#010101"/>
<path d="M84.6367 11.6357H82.3662V17.5H80.4912V11.6357H78.2207V10.2295H84.6367V11.6357Z" fill="#010101"/>
<path d="M92.376 17.5H90.5693L87.4834 12.5098V17.5H85.7646V10.2295H88.0059L90.6572 14.3945V10.2295H92.376V17.5Z" fill="#010101"/>
<path d="M100.95 17.5H99.0117L98.5088 16.0303H95.8135L95.3105 17.5H93.4209L96.1064 10.2295H98.2646L100.95 17.5ZM98.0547 14.6973L97.1611 12.0898L96.2676 14.6973H98.0547Z" fill="#010101"/>
<path d="M109.617 17.5H107.752V12.6318L106.404 15.791H105.11L103.763 12.6318V17.5H101.995V10.2295H104.173L105.809 13.877L107.439 10.2295H109.617V17.5Z" fill="#010101"/>
<path d="M124.93 10.2295L122.972 17.5H120.896L119.593 12.7637L118.323 17.5H116.248L114.29 10.2295H116.248L117.366 15.2344L118.704 10.2295H120.574L121.849 15.2344L123.021 10.2295H124.93Z" fill="#010101"/>
<path d="M130.115 17.5H125.857V16.2109H127.049V11.5186H125.857V10.2295H130.115V11.5186H128.924V16.2109H130.115V17.5Z" fill="#010101"/>
<path d="M137.332 11.6357H135.062V17.5H133.187V11.6357H130.916V10.2295H137.332V11.6357Z" fill="#010101"/>
<path d="M144.979 17.5H143.104V14.2969H140.335V17.5H138.46V10.2295H140.335V12.8906H143.104V10.2295H144.979V17.5Z" fill="#010101"/>
</svg>
