<svg width="157" height="28" viewBox="0 0 157 28" fill="none" xmlns="http://www.w3.org/2000/svg">
<path d="M70 0H0V28H70V0Z" fill="#555555"/>
<path d="M157 0H70V28H157V0Z" fill="#F03030"/>
<path d="M87.7395 11.817L85.1114 11.452L83.9364 9.17607C83.9043 9.11375 83.8516 9.06331 83.7864 9.03264C83.6228 8.95549 83.4241 9.01979 83.3422 9.17607L82.1674 11.452L79.5392 11.817C79.4668 11.8269 79.4005 11.8596 79.3498 11.909C79.2885 11.9692 79.2547 12.0503 79.2558 12.1343C79.257 12.2183 79.2931 12.2984 79.356 12.3571L81.2576 14.1286L80.8083 16.6301C80.7977 16.6883 80.8044 16.7481 80.8278 16.8029C80.851 16.8576 80.8898 16.905 80.9399 16.9397C80.9898 16.9744 81.049 16.995 81.1106 16.9992C81.1723 17.0034 81.2339 16.991 81.2886 16.9634L83.6393 15.7824L85.9901 16.9634C86.0544 16.9961 86.1289 17.007 86.2003 16.9951C86.3804 16.9654 86.5015 16.8022 86.4705 16.6301L86.0212 14.1286L87.9227 12.3571C87.9745 12.3086 88.0086 12.2453 88.019 12.1761C88.0469 12.003 87.9206 11.8428 87.7395 11.817Z" fill="#FFD500"/>
<path d="M20.2002 17.5H19.2334V11.2354L17.2119 15.498H16.6357L14.6289 11.2354V17.5H13.7256V10.2295H15.0439L16.9824 14.2773L18.8574 10.2295H20.2002V17.5Z" fill="white"/>
<path d="M27.8857 17.5H26.8555L26.1426 15.4736H22.998L22.2852 17.5H21.3037L23.9502 10.2295H25.2393L27.8857 17.5ZM25.8447 14.6436L24.5703 11.0742L23.291 14.6436H25.8447Z" fill="white"/>
<path d="M35.1318 13.8721C35.1318 14.5329 34.987 15.1318 34.6973 15.6689C34.4108 16.2061 34.0283 16.6227 33.5498 16.9189C33.2178 17.124 32.8467 17.2721 32.4365 17.3633C32.0296 17.4544 31.4925 17.5 30.8252 17.5H28.9893V10.2295H30.8057C31.5153 10.2295 32.0785 10.2816 32.4951 10.3857C32.915 10.4867 33.2699 10.6266 33.5596 10.8057C34.0544 11.1149 34.4401 11.5267 34.7168 12.041C34.9935 12.5553 35.1318 13.1657 35.1318 13.8721ZM34.1211 13.8574C34.1211 13.2878 34.0218 12.8076 33.8232 12.417C33.6247 12.0264 33.3285 11.7188 32.9346 11.4941C32.6481 11.3314 32.3438 11.2191 32.0215 11.1572C31.6992 11.0921 31.3135 11.0596 30.8643 11.0596H29.9561V16.6699H30.8643C31.3298 16.6699 31.735 16.6357 32.0801 16.5674C32.4284 16.499 32.7474 16.3721 33.0371 16.1865C33.3984 15.9554 33.6686 15.651 33.8477 15.2734C34.0299 14.8958 34.1211 14.4238 34.1211 13.8574Z" fill="white"/>
<path d="M41.4844 17.5H36.6943V10.2295H41.4844V11.0889H37.6611V13.0811H41.4844V13.9404H37.6611V16.6406H41.4844V17.5Z" fill="white"/>
<path d="M49.1016 17.5H46.2305V16.7578H47.1826V10.9717H46.2305V10.2295H49.1016V10.9717H48.1494V16.7578H49.1016V17.5Z" fill="white"/>
<path d="M56.2939 17.5H55.0977L51.6504 10.9961V17.5H50.7471V10.2295H52.2461L55.3906 16.167V10.2295H56.2939V17.5Z" fill="white"/>
<path d="M101.789 10.2295L99.1377 17.5H97.0381L94.3867 10.2295H96.3545L98.1123 15.3369L99.8701 10.2295H101.789Z" fill="white"/>
<path d="M106.765 17.5H102.507V16.2109H103.698V11.5186H102.507V10.2295H106.765V11.5186H105.573V16.2109H106.765V17.5Z" fill="white"/>
<path d="M113.552 17.5H108.293V10.2295H113.552V11.6357H110.158V12.8906H113.308V14.2969H110.158V16.0938H113.552V17.5Z" fill="white"/>
<path d="M120.817 11.6357H118.547V17.5H116.672V11.6357H114.401V10.2295H120.817V11.6357Z" fill="white"/>
<path d="M128.557 17.5H126.75L123.664 12.5098V17.5H121.945V10.2295H124.187L126.838 14.3945V10.2295H128.557V17.5Z" fill="white"/>
<path d="M137.131 17.5H135.192L134.689 16.0303H131.994L131.491 17.5H129.602L132.287 10.2295H134.445L137.131 17.5ZM134.235 14.6973L133.342 12.0898L132.448 14.6973H134.235Z" fill="white"/>
<path d="M145.798 17.5H143.933V12.6318L142.585 15.791H141.291L139.943 12.6318V17.5H138.176V10.2295H140.354L141.989 13.877L143.62 10.2295H145.798V17.5Z" fill="white"/>
</svg>
