<svg width="180" height="28" viewBox="0 0 180 28" fill="none" xmlns="http://www.w3.org/2000/svg">
<path d="M80 0H0V28H80V0Z" fill="#555555"/>
<path d="M180 0H80V28H180V0Z" fill="#2A926C"/>
<path fill-rule="evenodd" clip-rule="evenodd" d="M103.646 8H105.351L102.408 17H100.702L103.646 8ZM112.792 12.9999L109.743 16.5875L110.857 17.8911L115.011 12.9998L110.853 8.10821L109.744 9.41318L112.792 12.9999ZM92.2677 9.41249L89.2183 13L92.2671 16.5868L91.1579 17.8917L87 13.0001L91.1534 8.10886L92.2677 9.41249ZM100.773 12.6571L99.5152 8.90002H98.2055L96.5787 13.494L95.0849 8.90002H93.1306L95.7295 16.1849H97.254L98.8092 11.8569L99.9632 15.133L100.773 12.6571ZM104.024 16.185H105.908C106.44 16.185 106.901 16.1031 107.289 15.9394C107.685 15.7757 107.989 15.5438 108.2 15.2437C108.412 14.9435 108.517 14.5923 108.517 14.1898C108.517 13.7465 108.401 13.3713 108.169 13.0643C107.938 12.7506 107.607 12.5323 107.177 12.4095C107.538 12.2799 107.818 12.0719 108.016 11.7854C108.214 11.4989 108.313 11.1681 108.313 10.7929C108.313 10.2132 108.087 9.75272 107.637 9.41167C107.307 9.16178 106.893 9.00344 106.395 8.93665L105.919 10.3916C106.057 10.4205 106.17 10.4656 106.256 10.5269C106.427 10.6429 106.512 10.8236 106.512 11.0692C106.512 11.3079 106.43 11.4819 106.266 11.591C106.103 11.7001 105.843 11.7547 105.489 11.7547H105.473L104.998 13.2076H105.683C106.058 13.2076 106.324 13.2656 106.481 13.3815C106.638 13.4975 106.716 13.6953 106.716 13.975C106.716 14.2478 106.635 14.4422 106.471 14.5582C106.314 14.6741 106.051 14.7321 105.683 14.7321H104.5L104.024 16.185Z" fill="white"/>
<path d="M17.7217 17.5H16.7549V11.2354L14.7334 15.498H14.1572L12.1504 11.2354V17.5H11.2471V10.2295H12.5654L14.5039 14.2773L16.3789 10.2295H17.7217V17.5Z" fill="white"/>
<path d="M24.4648 17.5H19.6748V10.2295H24.4648V11.0889H20.6416V13.0811H24.4648V13.9404H20.6416V16.6406H24.4648V17.5Z" fill="white"/>
<path d="M32.4775 17.5H31.5107V11.2354L29.4893 15.498H28.9131L26.9062 11.2354V17.5H26.0029V10.2295H27.3213L29.2598 14.2773L31.1348 10.2295H32.4775V17.5Z" fill="white"/>
<path d="M39.9141 15.2637C39.9141 15.625 39.8457 15.944 39.709 16.2207C39.5723 16.4974 39.3883 16.7253 39.1572 16.9043C38.8838 17.1191 38.5827 17.2721 38.2539 17.3633C37.9284 17.4544 37.5133 17.5 37.0088 17.5H34.4307V10.2295H36.584C37.1146 10.2295 37.5117 10.249 37.7754 10.2881C38.0391 10.3271 38.2913 10.4085 38.5322 10.5322C38.7992 10.6722 38.9928 10.8529 39.1133 11.0742C39.2337 11.2923 39.2939 11.5544 39.2939 11.8604C39.2939 12.2054 39.2061 12.5 39.0303 12.7441C38.8545 12.985 38.6201 13.1787 38.3271 13.3252V13.3643C38.8187 13.4652 39.2061 13.6816 39.4893 14.0137C39.7725 14.3424 39.9141 14.7591 39.9141 15.2637ZM38.2881 11.9873C38.2881 11.8115 38.2588 11.6634 38.2002 11.543C38.1416 11.4225 38.0472 11.3249 37.917 11.25C37.764 11.1621 37.5785 11.1084 37.3604 11.0889C37.1423 11.0661 36.8721 11.0547 36.5498 11.0547H35.3975V13.1543H36.6475C36.9502 13.1543 37.1911 13.1396 37.3701 13.1104C37.5492 13.0778 37.7152 13.0127 37.8682 12.915C38.0212 12.8174 38.1286 12.6921 38.1904 12.5391C38.2555 12.3828 38.2881 12.1989 38.2881 11.9873ZM38.9082 15.3027C38.9082 15.0098 38.8643 14.777 38.7764 14.6045C38.6885 14.432 38.529 14.2855 38.2979 14.165C38.1416 14.0837 37.9512 14.0316 37.7266 14.0088C37.5052 13.9827 37.235 13.9697 36.916 13.9697H35.3975V16.6748H36.6768C37.0999 16.6748 37.4466 16.6536 37.7168 16.6113C37.987 16.5658 38.2083 16.4844 38.3809 16.3672C38.5632 16.2402 38.6966 16.0954 38.7812 15.9326C38.8659 15.7699 38.9082 15.5599 38.9082 15.3027Z" fill="white"/>
<path d="M46.0762 17.5H41.2861V10.2295H46.0762V11.0889H42.2529V13.0811H46.0762V13.9404H42.2529V16.6406H46.0762V17.5Z" fill="white"/>
<path d="M53.6299 17.5H52.375L49.9434 14.6094H48.5811V17.5H47.6143V10.2295H49.6504C50.0898 10.2295 50.4561 10.2588 50.749 10.3174C51.042 10.3727 51.3057 10.4736 51.54 10.6201C51.8037 10.7861 52.0088 10.9961 52.1553 11.25C52.305 11.5007 52.3799 11.8197 52.3799 12.207C52.3799 12.7311 52.248 13.1706 51.9844 13.5254C51.7207 13.877 51.3577 14.1423 50.8955 14.3213L53.6299 17.5ZM51.3691 12.2754C51.3691 12.0671 51.3317 11.8831 51.2568 11.7236C51.1852 11.5609 51.0648 11.4242 50.8955 11.3135C50.7555 11.2191 50.5895 11.154 50.3975 11.1182C50.2054 11.0791 49.9792 11.0596 49.7188 11.0596H48.5811V13.8037H49.5576C49.8636 13.8037 50.1305 13.7777 50.3584 13.7256C50.5863 13.6702 50.7799 13.5693 50.9395 13.4229C51.0859 13.2861 51.1934 13.1299 51.2617 12.9541C51.3333 12.7751 51.3691 12.5488 51.3691 12.2754Z" fill="white"/>
<path d="M63.5029 11.0645C63.7992 11.39 64.0254 11.7887 64.1816 12.2607C64.3411 12.7327 64.4209 13.2682 64.4209 13.8672C64.4209 14.4661 64.3395 15.0033 64.1768 15.4785C64.0173 15.9505 63.7926 16.3444 63.5029 16.6602C63.2035 16.9889 62.8486 17.2363 62.4385 17.4023C62.0316 17.5684 61.5661 17.6514 61.042 17.6514C60.5309 17.6514 60.0654 17.5667 59.6455 17.3975C59.2288 17.2282 58.874 16.9824 58.5811 16.6602C58.2881 16.3379 58.0618 15.9424 57.9023 15.4736C57.7461 15.0049 57.668 14.4694 57.668 13.8672C57.668 13.2747 57.7461 12.7441 57.9023 12.2754C58.0586 11.8034 58.2865 11.3997 58.5859 11.0645C58.8724 10.7454 59.2272 10.5013 59.6504 10.332C60.0768 10.1628 60.5407 10.0781 61.042 10.0781C61.5628 10.0781 62.0299 10.1644 62.4434 10.3369C62.86 10.5062 63.2132 10.7487 63.5029 11.0645ZM63.415 13.8672C63.415 12.9232 63.2035 12.1956 62.7803 11.6846C62.3571 11.1702 61.7793 10.9131 61.0469 10.9131C60.3079 10.9131 59.7269 11.1702 59.3037 11.6846C58.8838 12.1956 58.6738 12.9232 58.6738 13.8672C58.6738 14.821 58.8887 15.5518 59.3184 16.0596C59.748 16.5641 60.3242 16.8164 61.0469 16.8164C61.7695 16.8164 62.3441 16.5641 62.7705 16.0596C63.2002 15.5518 63.415 14.821 63.415 13.8672Z" fill="white"/>
<path d="M70.5977 11.0889H66.9209V13.1396H70.0801V13.999H66.9209V17.5H65.9541V10.2295H70.5977V11.0889Z" fill="white"/>
<path d="M129.46 10.2295L127.502 17.5H125.427L124.123 12.7637L122.854 17.5H120.778L118.82 10.2295H120.778L121.896 15.2344L123.234 10.2295H125.104L126.379 15.2344L127.551 10.2295H129.46Z" fill="white"/>
<path d="M135.974 17.5H130.715V10.2295H135.974V11.6357H132.58V12.8906H135.729V14.2969H132.58V16.0938H135.974V17.5Z" fill="white"/>
<path d="M143.771 15.2734C143.771 15.625 143.7 15.9391 143.557 16.2158C143.417 16.4925 143.223 16.722 142.976 16.9043C142.689 17.1191 142.373 17.2721 142.028 17.3633C141.687 17.4544 141.252 17.5 140.725 17.5H137.551V10.2295H140.373C140.959 10.2295 141.387 10.249 141.657 10.2881C141.931 10.3271 142.201 10.4134 142.468 10.5469C142.744 10.6868 142.95 10.8757 143.083 11.1133C143.22 11.3477 143.288 11.6162 143.288 11.9189C143.288 12.2705 143.195 12.5814 143.01 12.8516C142.824 13.1185 142.562 13.3268 142.224 13.4766V13.5156C142.699 13.61 143.075 13.8053 143.352 14.1016C143.632 14.3978 143.771 14.7884 143.771 15.2734ZM141.369 12.2852C141.369 12.1647 141.338 12.0443 141.276 11.9238C141.218 11.8034 141.112 11.7139 140.959 11.6553C140.822 11.6032 140.651 11.5755 140.446 11.5723C140.244 11.5658 139.96 11.5625 139.592 11.5625H139.416V13.1006H139.709C140.005 13.1006 140.257 13.0957 140.466 13.0859C140.674 13.0762 140.839 13.0436 140.959 12.9883C141.128 12.9134 141.239 12.8174 141.291 12.7002C141.343 12.5798 141.369 12.4414 141.369 12.2852ZM141.828 15.2441C141.828 15.013 141.783 14.8356 141.691 14.7119C141.604 14.585 141.452 14.4906 141.237 14.4287C141.091 14.3864 140.889 14.3636 140.632 14.3604C140.375 14.3571 140.106 14.3555 139.826 14.3555H139.416V16.167H139.553C140.08 16.167 140.458 16.1654 140.686 16.1621C140.913 16.1589 141.123 16.1165 141.315 16.0352C141.511 15.9538 141.644 15.8464 141.716 15.7129C141.791 15.5762 141.828 15.4199 141.828 15.2441Z" fill="white"/>
<path d="M151.535 14.8682C151.535 15.7666 151.262 16.4551 150.715 16.9336C150.168 17.4121 149.362 17.6514 148.298 17.6514C147.233 17.6514 146.428 17.4121 145.881 16.9336C145.337 16.4551 145.065 15.7682 145.065 14.873V10.2295H146.95V14.7656C146.95 15.2702 147.056 15.6462 147.268 15.8936C147.479 16.141 147.823 16.2646 148.298 16.2646C148.767 16.2646 149.108 16.1458 149.323 15.9082C149.541 15.6706 149.65 15.2897 149.65 14.7656V10.2295H151.535V14.8682Z" fill="white"/>
<path d="M157.224 17.5H152.966V16.2109H154.157V11.5186H152.966V10.2295H157.224V11.5186H156.032V16.2109H157.224V17.5Z" fill="white"/>
<path d="M163.996 17.5H158.752V10.2295H160.627V16.0938H163.996V17.5Z" fill="white"/>
<path d="M171.999 13.8721C171.999 14.5492 171.844 15.1562 171.535 15.6934C171.226 16.2272 170.835 16.6374 170.363 16.9238C170.008 17.1387 169.619 17.2884 169.196 17.373C168.773 17.4577 168.272 17.5 167.692 17.5H165.129V10.2295H167.766C168.358 10.2295 168.869 10.2799 169.299 10.3809C169.729 10.4785 170.09 10.6185 170.383 10.8008C170.884 11.1068 171.278 11.5202 171.564 12.041C171.854 12.5586 171.999 13.1689 171.999 13.8721ZM170.061 13.8574C170.061 13.3789 169.973 12.9704 169.797 12.6318C169.624 12.29 169.349 12.0231 168.972 11.8311C168.78 11.7367 168.583 11.6732 168.381 11.6406C168.182 11.6048 167.881 11.5869 167.478 11.5869H167.004V16.1377H167.478C167.924 16.1377 168.251 16.1182 168.459 16.0791C168.667 16.0368 168.871 15.9619 169.069 15.8545C169.411 15.6592 169.662 15.3988 169.821 15.0732C169.981 14.7445 170.061 14.3392 170.061 13.8574Z" fill="white"/>
</svg>
